<svg width="240" height="120" viewBox="0 0 240 120" xmlns="http://www.w3.org/2000/svg">
  <defs>
    <linearGradient id="heartGradient" x1="0%" y1="0%" x2="100%" y2="100%">
      <stop offset="0%" style="stop-color:#ff6b6b;stop-opacity:1" />
      <stop offset="100%" style="stop-color:#ee5a24;stop-opacity:1" />
    </linearGradient>
    <linearGradient id="textGradient" x1="0%" y1="0%" x2="100%" y2="0%">
      <stop offset="0%" style="stop-color:#2c3e50;stop-opacity:1" />
      <stop offset="100%" style="stop-color:#34495e;stop-opacity:1" />
    </linearGradient>
  </defs>
  
  <!-- Background -->
  <rect width="240" height="120" fill="#ffffff" rx="8"/>
  
  <!-- Heart Icon -->
  <g transform="translate(20, 25)">
    <path d="M20,70 C20,70 5,50 5,35 C5,25 12,20 20,20 C28,20 35,25 35,35 C35,50 20,70 20,70 Z" fill="url(#heartGradient)"/>
    <path d="M20,70 C20,70 35,50 35,35 C35,25 42,20 50,20 C58,20 65,25 65,35 C65,50 20,70 20,70 Z" fill="url(#heartGradient)"/>
    <!-- Building elements -->
    <rect x="12" y="45" width="16" height="20" fill="#ffffff" opacity="0.3" rx="2"/>
    <rect x="32" y="40" width="16" height="25" fill="#ffffff" opacity="0.3" rx="2"/>
    <rect x="52" y="42" width="16" height="23" fill="#ffffff" opacity="0.3" rx="2"/>
  </g>
  
  <!-- Company Name -->
  <text x="85" y="35" font-family="Arial, sans-serif" font-size="16" font-weight="bold" fill="url(#textGradient)">BUILT FROM</text>
  <text x="85" y="55" font-family="Arial, sans-serif" font-size="20" font-weight="bold" fill="url(#heartGradient)">LOVE</text>
  <text x="85" y="75" font-family="Arial, sans-serif" font-size="12" font-weight="normal" fill="#7f8c8d">LLC</text>
  
  <!-- Decorative elements -->
  <circle cx="220" cy="30" r="3" fill="#ff6b6b" opacity="0.6"/>
  <circle cx="210" cy="45" r="2" fill="#ee5a24" opacity="0.4"/>
  <circle cx="225" cy="55" r="2.5" fill="#ff6b6b" opacity="0.5"/>
</svg> 